<?xml version="1.0" standalone="no"?>
<!DOCTYPE svg PUBLIC "-//W3C//DTD SVG 20010904//EN"
 "http://www.w3.org/TR/2001/REC-SVG-20010904/DTD/svg10.dtd">
<svg version="1.0" xmlns="http://www.w3.org/2000/svg"
 width="1200.000000pt" height="1200.000000pt" viewBox="0 0 1200.000000 1200.000000"
 preserveAspectRatio="xMidYMid meet">
<metadata>
Created by potrace 1.11, written by Peter Selinger 2001-2013
</metadata>
<g transform="translate(0.000000,1200.000000) scale(0.100000,-0.100000)"
fill="#000000" stroke="none">
<path d="M5718 11755 c-1 -1 -52 -6 -113 -9 -60 -4 -128 -9 -150 -11 -184 -21
-317 -39 -415 -57 -63 -11 -128 -22 -144 -25 -16 -3 -59 -11 -95 -19 -36 -8
-76 -17 -89 -20 -13 -2 -92 -23 -175 -45 -84 -22 -159 -41 -169 -44 -9 -2 -98
-31 -199 -65 -407 -138 -717 -280 -1109 -507 -112 -65 -436 -278 -460 -303 -3
-3 -41 -32 -85 -65 -81 -60 -207 -163 -325 -265 -165 -141 -509 -499 -645
-670 -33 -41 -63 -77 -66 -80 -11 -9 -174 -233 -241 -330 -66 -96 -218 -337
-218 -346 0 -3 -16 -29 -35 -59 -19 -30 -32 -55 -29 -55 3 0 -3 -12 -14 -27
-54 -78 -276 -560 -328 -713 -10 -30 -21 -59 -25 -65 -4 -5 -29 -80 -57 -165
-42 -131 -59 -184 -78 -255 -16 -59 -75 -293 -79 -314 -3 -14 -7 -37 -10 -51
-3 -14 -8 -36 -11 -50 -27 -144 -35 -189 -48 -275 -30 -197 -33 -229 -53 -470
-15 -195 -8 -792 12 -930 2 -16 7 -57 10 -90 6 -67 12 -114 20 -165 3 -19 8
-52 10 -72 14 -108 62 -349 101 -504 13 -55 27 -110 30 -124 10 -51 157 -507
178 -554 8 -17 21 -51 31 -76 43 -116 127 -302 218 -480 55 -107 107 -210 115
-227 9 -18 20 -33 24 -33 4 0 8 -4 8 -10 0 -13 96 -170 198 -324 142 -214 331
-459 507 -656 52 -58 367 -373 425 -425 46 -41 152 -133 204 -176 16 -13 34
-29 40 -34 39 -37 343 -256 451 -327 259 -169 613 -362 840 -457 44 -19 103
-44 130 -56 28 -12 66 -27 85 -34 19 -7 44 -17 55 -22 11 -5 47 -18 80 -29 33
-12 69 -25 80 -30 31 -12 131 -45 230 -74 50 -14 104 -31 120 -36 34 -10 230
-60 260 -66 34 -6 109 -22 135 -28 39 -9 251 -47 285 -51 31 -3 112 -14 155
-21 14 -2 52 -6 85 -9 33 -3 74 -8 90 -10 185 -27 871 -27 1080 0 17 3 75 9
130 15 55 6 138 17 185 25 47 8 102 17 124 21 36 5 257 49 300 59 298 70 602
166 888 281 176 70 520 236 643 309 42 25 78 45 80 45 6 0 247 151 325 204
177 119 458 337 615 477 92 81 391 383 471 474 144 165 178 207 291 357 94
125 198 276 308 448 42 65 136 229 133 232 -2 2 6 17 18 33 81 116 293 595
394 892 73 211 178 606 203 758 3 17 14 82 25 145 19 109 34 207 37 240 3 36
18 166 20 181 26 138 26 859 0 1082 -2 18 -6 59 -10 92 -14 127 -40 302 -60
405 -8 41 -16 86 -19 100 -7 43 -78 345 -83 352 -2 5 -6 16 -8 27 -11 57 -116
385 -169 525 -80 213 -246 570 -343 738 -20 35 -61 106 -91 158 -153 263 -400
606 -603 836 -106 120 -148 164 -298 314 -92 91 -193 188 -226 217 -33 28 -71
61 -85 73 -14 12 -45 39 -70 59 -25 20 -51 42 -58 49 -32 30 -288 217 -402
293 -374 252 -801 471 -1195 614 -55 20 -109 40 -120 45 -49 20 -318 102 -440
133 -99 26 -267 65 -315 73 -14 3 -59 11 -100 19 -78 15 -257 43 -324 50 -21
3 -55 7 -75 9 -20 3 -71 8 -113 11 -43 4 -90 9 -105 11 -32 5 -699 14 -705 9z"/>
</g>
</svg>
